<?xml version="1.0" encoding="UTF-8"?>
<svg width="396px" height="380px" viewBox="0 0 396 380" version="1.1" xmlns="http://www.w3.org/2000/svg" xmlns:xlink="http://www.w3.org/1999/xlink">
    <!-- Generator: Sketch 47.1 (45422) - http://www.bohemiancoding.com/sketch -->
    <title>Group 3</title>
    <desc>Created with Sketch.</desc>
    <defs>
        <circle id="path-1" cx="196" cy="170" r="170"></circle>
        <filter x="-7.4%" y="-7.4%" width="120.6%" height="120.6%" filterUnits="objectBoundingBox" id="filter-2">
            <feOffset dx="10" dy="10" in="SourceAlpha" result="shadowOffsetOuter1"></feOffset>
            <feGaussianBlur stdDeviation="10" in="shadowOffsetOuter1" result="shadowBlurOuter1"></feGaussianBlur>
            <feComposite in="shadowBlurOuter1" in2="SourceAlpha" operator="out" result="shadowBlurOuter1"></feComposite>
            <feColorMatrix values="0 0 0 0 0   0 0 0 0 0   0 0 0 0 0  0 0 0 0.5 0" type="matrix" in="shadowBlurOuter1"></feColorMatrix>
        </filter>
        <circle id="path-3" cx="196.5" cy="170.5" r="145.5"></circle>
        <filter x="-2.4%" y="-1.7%" width="104.8%" height="104.8%" filterUnits="objectBoundingBox" id="filter-4">
            <feOffset dx="0" dy="2" in="SourceAlpha" result="shadowOffsetOuter1"></feOffset>
            <feGaussianBlur stdDeviation="2" in="shadowOffsetOuter1" result="shadowBlurOuter1"></feGaussianBlur>
            <feComposite in="shadowBlurOuter1" in2="SourceAlpha" operator="out" result="shadowBlurOuter1"></feComposite>
            <feColorMatrix values="0 0 0 0 0   0 0 0 0 0   0 0 0 0 0  0 0 0 0.5 0" type="matrix" in="shadowBlurOuter1"></feColorMatrix>
        </filter>
    </defs>
    <g id="Page-1" stroke="none" stroke-width="1" fill="none" fill-rule="evenodd">
        <g id="Desktop-HD" transform="translate(-524.000000, -357.000000)">
            <g id="Group-3" transform="translate(524.000000, 367.000000)">
                <g id="Oval">
                    <use fill="black" fill-opacity="1" filter="url(#filter-2)" xlink:href="#path-1"></use>
                    <use fill="#222E45" fill-rule="evenodd" xlink:href="#path-1"></use>
                </g>
                <g id="Oval">
                    <use fill="black" fill-opacity="1" filter="url(#filter-4)" xlink:href="#path-3"></use>
                    <use fill="#EEFEFD" fill-rule="evenodd" xlink:href="#path-3"></use>
                </g>
                <g id="Group-2" transform="translate(0.000000, 18.000000)" fill="#337883">
                    <g id="Group">
                        <circle id="Oval-2" cx="51" cy="51" r="51"></circle>
                        <path d="M100.551046,38.9187735 C106.257782,64.2858739 114.778208,83.4014563 126.112323,96.2655206 C137.446437,109.129585 154.76785,115.863211 178.076559,116.466398 L161.26526,144.799758 C149.61266,128.444581 135.729668,117.037966 119.616282,110.579915 C103.502897,104.121863 80.9485414,101.259124 51.9532162,101.991697 L100.551046,38.9187735 Z" id="Path-2"></path>
                    </g>
                    <g id="Group" transform="translate(93.500000, 233.500000) scale(1, -1) translate(-93.500000, -233.500000) translate(4.000000, 161.000000)">
                        <circle id="Oval-2" cx="51" cy="51" r="51"></circle>
                        <path d="M100.551046,38.9187735 C106.257782,64.2858739 114.778208,83.4014563 126.112323,96.2655206 C137.446437,109.129585 154.76785,115.863211 178.076559,116.466398 L161.26526,144.799758 C149.61266,128.444581 135.729668,117.037966 119.616282,110.579915 C103.502897,104.121863 80.9485414,101.259124 51.9532162,101.991697 L100.551046,38.9187735 Z" id="Path-2"></path>
                    </g>
                </g>
                <circle id="Oval-2" fill="#222E45" cx="196" cy="170" r="51"></circle>
            </g>
        </g>
    </g>
</svg>